<?xml version="1.0" encoding="UTF-8" standalone="no"?>
<!DOCTYPE svg PUBLIC "-//W3C//DTD SVG 1.1//EN" "http://www.w3.org/Graphics/SVG/1.1/DTD/svg11.dtd">
<svg width="100%" height="100%" viewBox="0 0 26 26" version="1.1" xmlns="http://www.w3.org/2000/svg" xmlns:xlink="http://www.w3.org/1999/xlink" xml:space="preserve" xmlns:serif="http://www.serif.com/" style="fill-rule:evenodd;clip-rule:evenodd;stroke-linejoin:round;stroke-miterlimit:2;">
    <g transform="matrix(1,0,0,1,-797.963,-3252.42)">
        <g transform="matrix(1.91644,0,0,5.63967,-10.6275,-41.5326)">
            <g transform="matrix(0.152388,0,0,0.0517834,418.02,582.308)">
                <g transform="matrix(1,0,0,1,-3.63999,4.73921)">
                    <rect x="29.255" y="29.252" width="87.766" height="87.766" style="fill:rgb(225,31,38);fill-rule:nonzero;"/>
                </g>
                <g transform="matrix(1,0,0,1,-3.63999,4.73921)">
                    <path d="M67.653,92.335C66.148,92.332 64.911,91.094 64.911,89.589C64.911,89.295 64.958,89.003 65.051,88.725L76.021,55.812C76.394,54.695 77.446,53.937 78.623,53.937C80.128,53.937 81.366,55.175 81.366,56.68C81.366,56.975 81.319,57.268 81.225,57.548L70.255,90.46C69.882,91.577 68.83,92.335 67.653,92.335Z" style="fill:white;fill-rule:nonzero;"/>
                </g>
                <g transform="matrix(1,0,0,1,-3.63999,4.73921)">
                    <path d="M51.197,92.335C49.692,92.332 48.455,91.094 48.455,89.589C48.455,89.295 48.502,89.003 48.594,88.725L59.565,55.812C59.94,54.698 60.99,53.943 62.165,53.943C63.67,53.943 64.908,55.182 64.908,56.686C64.908,56.979 64.861,57.27 64.769,57.548L53.798,90.46C53.426,91.577 52.374,92.335 51.197,92.335Z" style="fill:white;fill-rule:nonzero;"/>
                </g>
                <g transform="matrix(1,0,0,1,-3.63999,4.73921)">
                    <path d="M84.109,92.335C82.604,92.332 81.367,91.094 81.367,89.589C81.367,89.295 81.414,89.003 81.506,88.725L92.477,55.812C92.852,54.698 93.902,53.943 95.077,53.943C96.582,53.943 97.82,55.182 97.82,56.686C97.82,56.979 97.773,57.27 97.681,57.548L86.711,90.46C86.338,91.577 85.286,92.335 84.109,92.335Z" style="fill:white;fill-rule:nonzero;"/>
                </g>
            </g>
        </g>
    </g>
</svg>
