<?xml version="1.0" encoding="UTF-8" standalone="no"?>
<!DOCTYPE svg PUBLIC "-//W3C//DTD SVG 1.1//EN" "http://www.w3.org/Graphics/SVG/1.1/DTD/svg11.dtd">
<svg width="100%" height="100%" viewBox="0 0 41 41" version="1.1" xmlns="http://www.w3.org/2000/svg" xmlns:xlink="http://www.w3.org/1999/xlink" xml:space="preserve" xmlns:serif="http://www.serif.com/" style="fill-rule:evenodd;clip-rule:evenodd;stroke-linecap:round;stroke-linejoin:round;stroke-miterlimit:1.5;">
    <g transform="matrix(1,0,0,1,-1379.95,-16.6497)">
        <g transform="matrix(1.91644,0,0,5.63967,-10.6275,-41.5326)">
            <g transform="matrix(1.12304,0,0,0.381625,-2135.22,-56.664)">
                <circle cx="2556.88" cy="185.003" r="9.209" style="fill:none;stroke:white;stroke-width:0.56px;"/>
            </g>
        </g>
        <g transform="matrix(1.91644,0,0,5.63967,-10.6275,-41.5326)">
            <g transform="matrix(1.21268,0,0,0.800838,-184.197,3.25373)">
                <g transform="matrix(0.297337,0,0,0.144116,-342.169,26.7438)">
                    <path d="M3704.03,-95.227C3711.13,-95.227 3716.89,-89.463 3716.89,-82.364C3716.89,-75.264 3691.16,-75.264 3691.16,-82.364C3691.16,-89.463 3696.93,-95.227 3704.03,-95.227Z" style="fill:white;"/>
                </g>
                <g transform="matrix(0.297337,0,0,0.144116,-357.634,19.3335)">
                    <circle cx="3756.04" cy="-51.688" r="5.856" style="fill:white;"/>
                </g>
            </g>
        </g>
    </g>
</svg>
